<?xml version="1.0" standalone="no"?>
<!DOCTYPE svg PUBLIC "-//W3C//DTD SVG 20010904//EN"
 "http://www.w3.org/TR/2001/REC-SVG-20010904/DTD/svg10.dtd">
<svg version="1.0" xmlns="http://www.w3.org/2000/svg"
 width="700.000000pt" height="700.000000pt" viewBox="0 0 700.000000 700.000000"
 preserveAspectRatio="xMidYMid meet">
<metadata>
Created by potrace 1.14, written by Peter Selinger 2001-2017
</metadata>
<g transform="translate(0.000000,700.000000) scale(0.100000,-0.100000)"
fill="#000000" stroke="none">
<path d="M3477 5829 c-680 -48 -1316 -408 -1675 -947 -200 -300 -321 -611
-378 -972 -27 -166 -27 -640 -1 -825 23 -162 83 -400 132 -525 142 -361 380
-693 661 -919 480 -388 1169 -558 1781 -440 266 51 505 160 710 323 81 64 197
189 236 255 19 30 22 32 28 15 4 -10 17 -122 29 -249 11 -126 23 -242 26 -257
l6 -28 309 0 309 0 0 1135 0 1135 -1100 0 -1100 0 0 -335 0 -335 738 0 739 0
-9 -57 c-21 -137 -102 -328 -189 -444 -64 -87 -197 -213 -284 -271 -238 -156
-462 -219 -785 -219 -265 0 -461 42 -661 140 -231 114 -401 262 -539 466 -200
297 -283 599 -282 1030 0 475 112 815 374 1131 188 227 479 393 822 466 134
28 413 31 556 5 311 -58 607 -226 781 -443 81 -103 163 -244 209 -360 21 -54
42 -100 47 -101 10 -4 694 255 705 265 9 9 -50 159 -107 274 -244 486 -686
842 -1246 1003 -155 45 -303 71 -484 84 -153 12 -197 12 -358 0z"/>
</g>
</svg>
