<svg width="16" height="16" viewBox="0 0 16 16" fill="none" xmlns="http://www.w3.org/2000/svg">
<path fill-rule="evenodd" clip-rule="evenodd" d="M4.45566 0C1.99487 0 0 1.99487 0 4.45567L0 10.9729C0 13.4337 1.99487 15.4286 4.45567 15.4286H10.9729C13.4337 15.4286 15.4286 13.4337 15.4286 10.9729V4.45566C15.4286 1.99487 13.4337 0 10.9729 0L4.45566 0ZM4.5886 1.39648C2.82564 1.39648 1.39648 2.82564 1.39648 4.5886V10.8398C1.39648 12.6028 2.82564 14.032 4.5886 14.032H10.8398C12.6028 14.032 14.032 12.6028 14.032 10.8398V4.5886C14.032 2.82564 12.6028 1.39648 10.8398 1.39648H4.5886Z" fill="white"/>
<path fill-rule="evenodd" clip-rule="evenodd" d="M7.71417 11.6378C9.88114 11.6378 11.6378 9.88114 11.6378 7.71417C11.6378 5.5472 9.88114 3.79053 7.71417 3.79053C5.5472 3.79053 3.79053 5.5472 3.79053 7.71417C3.79053 9.88114 5.5472 11.6378 7.71417 11.6378ZM7.71423 10.2417C9.1099 10.2417 10.2413 9.11027 10.2413 7.71459C10.2413 6.31892 9.1099 5.1875 7.71423 5.1875C6.31855 5.1875 5.18713 6.31892 5.18713 7.71459C5.18713 9.11027 6.31855 10.2417 7.71423 10.2417Z" fill="white"/>
<circle cx="11.7709" cy="3.59119" r="0.931035" fill="white"/>
</svg>
