<svg width="16" height="15" viewBox="0 0 16 15" fill="none" xmlns="http://www.w3.org/2000/svg">
<path fill-rule="evenodd" clip-rule="evenodd" d="M1.87083 3.41436C2.9035 3.41436 3.74067 2.6509 3.74067 1.7081C3.74067 0.764456 2.9035 0 1.87083 0C0.837167 0 0 0.764456 0 1.7081C0 2.6509 0.837167 3.41436 1.87083 3.41436" fill="white"/>
<path fill-rule="evenodd" clip-rule="evenodd" d="M0.428589 14.3905H3.78369V4.71436H0.428589L0.428589 14.3905Z" fill="white"/>
<path fill-rule="evenodd" clip-rule="evenodd" d="M8.49232 9.00869C8.49232 7.89904 9.01732 6.81392 10.2727 6.81392C11.528 6.81392 11.8367 7.89904 11.8367 8.98216V14.2668H15.1767V8.7661C15.1767 4.94449 12.9177 4.28564 11.528 4.28564C10.1395 4.28564 9.37366 4.7553 8.49232 5.8933V4.59063H5.14282V14.2668H8.49232V9.00869Z" fill="white"/>
</svg>
