<svg width="75" height="16" viewBox="0 0 75 16" fill="none" xmlns="http://www.w3.org/2000/svg">
<path d="M12.7932 15.6752L12.5984 13.7267C12.4252 14.0153 12.1942 14.2968 11.9056 14.571C11.6313 14.8309 11.2993 15.069 10.9096 15.2855C10.5199 15.502 10.0725 15.6752 9.56727 15.8051C9.06208 15.935 8.50638 16 7.90015 16C6.90421 16 5.94436 15.8196 5.02058 15.4587C4.11125 15.0979 3.31016 14.5783 2.61734 13.8999C1.92451 13.207 1.3688 12.3699 0.950219 11.3884C0.546069 10.3924 0.343994 9.25936 0.343994 7.98917C0.343994 6.73342 0.560503 5.60758 0.99352 4.61164C1.42654 3.6157 1.99668 2.77853 2.70394 2.10014C3.42564 1.42174 4.24837 0.90212 5.17214 0.541271C6.11034 0.180424 7.07742 0 8.07336 0C8.99713 0 9.84151 0.129905 10.6065 0.389716C11.3715 0.635093 12.0427 0.97429 12.62 1.40731C13.2118 1.82589 13.7026 2.31664 14.0923 2.87957C14.4965 3.44249 14.7996 4.0415 15.0016 4.67659L12.5551 5.60758C12.4252 5.17456 12.2303 4.76319 11.9705 4.37348C11.7251 3.98376 11.4148 3.64457 11.0395 3.35589C10.6642 3.06721 10.224 2.83627 9.71882 2.66306C9.22807 2.48985 8.67958 2.40325 8.07336 2.40325C7.4527 2.40325 6.83926 2.51872 6.23303 2.74966C5.62681 2.96617 5.07832 3.30537 4.58757 3.76725C4.11125 4.22914 3.72153 4.81371 3.41842 5.52098C3.12974 6.2138 2.9854 7.03654 2.9854 7.98917C2.9854 8.92738 3.12252 9.75011 3.39677 10.4574C3.68545 11.1502 4.06073 11.7348 4.52261 12.2111C4.99893 12.673 5.54021 13.0266 6.14643 13.272C6.75265 13.5029 7.38775 13.6184 8.05171 13.6184C8.83114 13.6184 9.48788 13.5029 10.0219 13.272C10.5704 13.0266 11.0179 12.7307 11.3643 12.3843C11.7107 12.0379 11.9705 11.6698 12.1437 11.2801C12.3169 10.876 12.418 10.5079 12.4468 10.1759H7.38053V7.90257H14.8934V15.6752H12.7932Z" fill="#0C0D0F"/>
<path d="M23.8658 9.61299H21.9605V15.6752H19.3408V0.324763H25.2298C25.9659 0.324763 26.6299 0.447451 27.2217 0.692828C27.8279 0.923771 28.3331 1.25575 28.7373 1.68877C29.1558 2.10735 29.4734 2.59811 29.6899 3.16103C29.9208 3.72395 30.0363 4.33018 30.0363 4.9797C30.0363 6.07668 29.726 7.01489 29.1053 7.79432C28.4991 8.57375 27.6547 9.09337 26.5722 9.35318L30.0363 15.6752H27.0918L23.8658 9.61299ZM24.7535 7.318C25.5618 7.318 26.2041 7.10871 26.6804 6.69012C27.1567 6.2571 27.3949 5.68696 27.3949 4.9797C27.3949 4.25801 27.1567 3.68787 26.6804 3.26928C26.2041 2.83627 25.5618 2.61976 24.7535 2.61976H21.9605V7.318H24.7535Z" fill="#0C0D0F"/>
<path d="M34.1082 15.6752V0.324763H43.5913V2.74966H36.7063V6.82003H42.9418V9.17997H36.7063V13.2503H43.5913V15.6752H34.1082Z" fill="#0C0D0F"/>
<path d="M57.0588 11.8214H50.5635L49.1346 15.6752H46.3849L52.3606 0.324763H55.37L61.3457 15.6752H58.5094L57.0588 11.8214ZM51.4729 9.41813H56.1495L53.8112 3.13938L51.4729 9.41813Z" fill="#0C0D0F"/>
<path d="M69.3025 2.77131V15.6752H66.7044V2.77131H61.7247V0.324763H74.3039V2.77131H69.3025Z" fill="#0C0D0F"/>
</svg>
