<svg width="18" height="13" viewBox="0 0 18 13" fill="none" xmlns="http://www.w3.org/2000/svg">
<path fill-rule="evenodd" clip-rule="evenodd" d="M15.269 0.360564C16.0066 0.558998 16.5875 1.14364 16.7846 1.886C17.1429 3.23155 17.1429 6.03898 17.1429 6.03898C17.1429 6.03898 17.1429 8.84637 16.7846 10.192C16.5875 10.9343 16.0066 11.519 15.269 11.7174C13.9322 12.0779 8.57143 12.0779 8.57143 12.0779C8.57143 12.0779 3.21069 12.0779 1.87383 11.7174C1.13627 11.519 0.555382 10.9343 0.358215 10.192C0 8.84637 0 6.03898 0 6.03898C0 6.03898 0 3.23155 0.358215 1.886C0.555382 1.14364 1.13627 0.558998 1.87383 0.360564C3.21069 0 8.57143 0 8.57143 0C8.57143 0 13.9322 0 15.269 0.360564ZM11.3377 5.97769L6.85718 8.52653V3.42871L11.3377 5.97769Z" fill="#ffffff"/>
</svg>
